<svg class="rich-terminal" viewBox="0 0 689 489.2" xmlns="http://www.w3.org/2000/svg">
    <!-- Generated with Rich https://www.textualize.io -->
    <style>

    @font-face {
        font-family: "Fira Code";
        src: local("FiraCode-Regular"),
                url("https://cdnjs.cloudflare.com/ajax/libs/firacode/6.2.0/woff2/FiraCode-Regular.woff2") format("woff2"),
                url("https://cdnjs.cloudflare.com/ajax/libs/firacode/6.2.0/woff/FiraCode-Regular.woff") format("woff");
        font-style: normal;
        font-weight: 400;
    }
    @font-face {
        font-family: "Fira Code";
        src: local("FiraCode-Bold"),
                url("https://cdnjs.cloudflare.com/ajax/libs/firacode/6.2.0/woff2/FiraCode-Bold.woff2") format("woff2"),
                url("https://cdnjs.cloudflare.com/ajax/libs/firacode/6.2.0/woff/FiraCode-Bold.woff") format("woff");
        font-style: bold;
        font-weight: 700;
    }

    .terminal-matrix {
        font-family: Fira Code, monospace;
        font-size: 20px;
        line-height: 24.4px;
        font-variant-east-asian: full-width;
    }

    .terminal-title {
        font-size: 18px;
        font-weight: bold;
        font-family: arial;
    }

    .terminal-r1 { fill: #c5c8c6 }
.terminal-r2 { fill: #e0e0e0 }
.terminal-r3 { fill: #e0e0e0;font-weight: bold }
.terminal-r4 { fill: #ddedf9;font-weight: bold }
.terminal-r5 { fill: #272727 }
.terminal-r6 { fill: #003054 }
.terminal-r7 { fill: #ffa62b;font-weight: bold }
.terminal-r8 { fill: #495259 }
    </style>

    <defs>
    <clipPath id="terminal-clip-terminal">
      <rect x="0" y="0" width="670.0" height="438.2" />
    </clipPath>
    <clipPath id="terminal-line-0">
    <rect x="0" y="1.5" width="671" height="24.65"/>
            </clipPath>
<clipPath id="terminal-line-1">
    <rect x="0" y="25.9" width="671" height="24.65"/>
            </clipPath>
<clipPath id="terminal-line-2">
    <rect x="0" y="50.3" width="671" height="24.65"/>
            </clipPath>
<clipPath id="terminal-line-3">
    <rect x="0" y="74.7" width="671" height="24.65"/>
            </clipPath>
<clipPath id="terminal-line-4">
    <rect x="0" y="99.1" width="671" height="24.65"/>
            </clipPath>
<clipPath id="terminal-line-5">
    <rect x="0" y="123.5" width="671" height="24.65"/>
            </clipPath>
<clipPath id="terminal-line-6">
    <rect x="0" y="147.9" width="671" height="24.65"/>
            </clipPath>
<clipPath id="terminal-line-7">
    <rect x="0" y="172.3" width="671" height="24.65"/>
            </clipPath>
<clipPath id="terminal-line-8">
    <rect x="0" y="196.7" width="671" height="24.65"/>
            </clipPath>
<clipPath id="terminal-line-9">
    <rect x="0" y="221.1" width="671" height="24.65"/>
            </clipPath>
<clipPath id="terminal-line-10">
    <rect x="0" y="245.5" width="671" height="24.65"/>
            </clipPath>
<clipPath id="terminal-line-11">
    <rect x="0" y="269.9" width="671" height="24.65"/>
            </clipPath>
<clipPath id="terminal-line-12">
    <rect x="0" y="294.3" width="671" height="24.65"/>
            </clipPath>
<clipPath id="terminal-line-13">
    <rect x="0" y="318.7" width="671" height="24.65"/>
            </clipPath>
<clipPath id="terminal-line-14">
    <rect x="0" y="343.1" width="671" height="24.65"/>
            </clipPath>
<clipPath id="terminal-line-15">
    <rect x="0" y="367.5" width="671" height="24.65"/>
            </clipPath>
<clipPath id="terminal-line-16">
    <rect x="0" y="391.9" width="671" height="24.65"/>
            </clipPath>
    </defs>

    <rect fill="#292929" stroke="rgba(255,255,255,0.35)" stroke-width="1" x="1" y="1" width="687" height="487.2" rx="8"/><text class="terminal-title" fill="#c5c8c6" text-anchor="middle" x="343" y="27">TrackerApp</text>
            <g transform="translate(26,22)">
            <circle cx="0" cy="0" r="7" fill="#ff5f57"/>
            <circle cx="22" cy="0" r="7" fill="#febc2e"/>
            <circle cx="44" cy="0" r="7" fill="#28c840"/>
            </g>
        
    <g transform="translate(9, 41)" clip-path="url(#terminal-clip-terminal)">
    <rect fill="#242f38" x="0" y="1.5" width="12.2" height="24.65" shape-rendering="crispEdges"/><rect fill="#242f38" x="12.2" y="1.5" width="12.2" height="24.65" shape-rendering="crispEdges"/><rect fill="#242f38" x="24.4" y="1.5" width="61" height="24.65" shape-rendering="crispEdges"/><rect fill="#242f38" x="85.4" y="1.5" width="12.2" height="24.65" shape-rendering="crispEdges"/><rect fill="#242f38" x="97.6" y="1.5" width="158.6" height="24.65" shape-rendering="crispEdges"/><rect fill="#242f38" x="256.2" y="1.5" width="122" height="24.65" shape-rendering="crispEdges"/><rect fill="#242f38" x="378.2" y="1.5" width="170.8" height="24.65" shape-rendering="crispEdges"/><rect fill="#242f38" x="549" y="1.5" width="12.2" height="24.65" shape-rendering="crispEdges"/><rect fill="#242f38" x="561.2" y="1.5" width="0" height="24.65" shape-rendering="crispEdges"/><rect fill="#242f38" x="561.2" y="1.5" width="109.8" height="24.65" shape-rendering="crispEdges"/><rect fill="#2d3740" x="0" y="25.9" width="36.6" height="24.65" shape-rendering="crispEdges"/><rect fill="#2d3740" x="36.6" y="25.9" width="36.6" height="24.65" shape-rendering="crispEdges"/><rect fill="#2d3740" x="73.2" y="25.9" width="36.6" height="24.65" shape-rendering="crispEdges"/><rect fill="#2d3740" x="109.8" y="25.9" width="146.4" height="24.65" shape-rendering="crispEdges"/><rect fill="#2d3740" x="256.2" y="25.9" width="158.6" height="24.65" shape-rendering="crispEdges"/><rect fill="#2d3740" x="414.8" y="25.9" width="256.2" height="24.65" shape-rendering="crispEdges"/><rect fill="#0178d4" x="0" y="50.3" width="36.6" height="24.65" shape-rendering="crispEdges"/><rect fill="#0178d4" x="36.6" y="50.3" width="36.6" height="24.65" shape-rendering="crispEdges"/><rect fill="#0178d4" x="73.2" y="50.3" width="36.6" height="24.65" shape-rendering="crispEdges"/><rect fill="#0178d4" x="109.8" y="50.3" width="146.4" height="24.65" shape-rendering="crispEdges"/><rect fill="#0178d4" x="256.2" y="50.3" width="158.6" height="24.65" shape-rendering="crispEdges"/><rect fill="#0178d4" x="414.8" y="50.3" width="256.2" height="24.65" shape-rendering="crispEdges"/><rect fill="#272727" x="0" y="74.7" width="36.6" height="24.65" shape-rendering="crispEdges"/><rect fill="#272727" x="36.6" y="74.7" width="36.6" height="24.65" shape-rendering="crispEdges"/><rect fill="#272727" x="73.2" y="74.7" width="36.6" height="24.65" shape-rendering="crispEdges"/><rect fill="#272727" x="109.8" y="74.7" width="146.4" height="24.65" shape-rendering="crispEdges"/><rect fill="#272727" x="256.2" y="74.7" width="158.6" height="24.65" shape-rendering="crispEdges"/><rect fill="#272727" x="414.8" y="74.7" width="256.2" height="24.65" shape-rendering="crispEdges"/><rect fill="#272727" x="0" y="99.1" width="36.6" height="24.65" shape-rendering="crispEdges"/><rect fill="#272727" x="36.6" y="99.1" width="36.6" height="24.65" shape-rendering="crispEdges"/><rect fill="#272727" x="73.2" y="99.1" width="36.6" height="24.65" shape-rendering="crispEdges"/><rect fill="#272727" x="109.8" y="99.1" width="146.4" height="24.65" shape-rendering="crispEdges"/><rect fill="#272727" x="256.2" y="99.1" width="158.6" height="24.65" shape-rendering="crispEdges"/><rect fill="#272727" x="414.8" y="99.1" width="256.2" height="24.65" shape-rendering="crispEdges"/><rect fill="#272727" x="0" y="123.5" width="671" height="24.65" shape-rendering="crispEdges"/><rect fill="#272727" x="0" y="147.9" width="671" height="24.65" shape-rendering="crispEdges"/><rect fill="#272727" x="0" y="172.3" width="671" height="24.65" shape-rendering="crispEdges"/><rect fill="#272727" x="0" y="196.7" width="671" height="24.65" shape-rendering="crispEdges"/><rect fill="#272727" x="0" y="221.1" width="671" height="24.65" shape-rendering="crispEdges"/><rect fill="#272727" x="0" y="245.5" width="671" height="24.65" shape-rendering="crispEdges"/><rect fill="#272727" x="0" y="269.9" width="671" height="24.65" shape-rendering="crispEdges"/><rect fill="#272727" x="0" y="294.3" width="671" height="24.65" shape-rendering="crispEdges"/><rect fill="#272727" x="0" y="318.7" width="671" height="24.65" shape-rendering="crispEdges"/><rect fill="#272727" x="0" y="343.1" width="671" height="24.65" shape-rendering="crispEdges"/><rect fill="#272727" x="0" y="367.5" width="671" height="24.65" shape-rendering="crispEdges"/><rect fill="#003054" x="0" y="391.9" width="597.8" height="24.65" shape-rendering="crispEdges"/><rect fill="#000000" x="597.8" y="391.9" width="12.2" height="24.65" shape-rendering="crispEdges"/><rect fill="#000000" x="610" y="391.9" width="61" height="24.65" shape-rendering="crispEdges"/><rect fill="#242f38" x="0" y="416.3" width="36.6" height="24.65" shape-rendering="crispEdges"/><rect fill="#242f38" x="36.6" y="416.3" width="61" height="24.65" shape-rendering="crispEdges"/><rect fill="#242f38" x="97.6" y="416.3" width="61" height="24.65" shape-rendering="crispEdges"/><rect fill="#242f38" x="158.6" y="416.3" width="61" height="24.65" shape-rendering="crispEdges"/><rect fill="#242f38" x="219.6" y="416.3" width="36.6" height="24.65" shape-rendering="crispEdges"/><rect fill="#242f38" x="256.2" y="416.3" width="61" height="24.65" shape-rendering="crispEdges"/><rect fill="#242f38" x="317.2" y="416.3" width="36.6" height="24.65" shape-rendering="crispEdges"/><rect fill="#242f38" x="353.8" y="416.3" width="85.4" height="24.65" shape-rendering="crispEdges"/><rect fill="#242f38" x="439.2" y="416.3" width="36.6" height="24.65" shape-rendering="crispEdges"/><rect fill="#242f38" x="475.8" y="416.3" width="48.8" height="24.65" shape-rendering="crispEdges"/><rect fill="#242f38" x="524.6" y="416.3" width="12.2" height="24.65" shape-rendering="crispEdges"/><rect fill="#242f38" x="536.8" y="416.3" width="24.4" height="24.65" shape-rendering="crispEdges"/><rect fill="#242f38" x="561.2" y="416.3" width="97.6" height="24.65" shape-rendering="crispEdges"/><rect fill="#242f38" x="658.8" y="416.3" width="12.2" height="24.65" shape-rendering="crispEdges"/>
    <g class="terminal-matrix">
    <text class="terminal-r2" x="12.2" y="20" textLength="12.2" clip-path="url(#terminal-line-0)">⭘</text><text class="terminal-r2" x="256.2" y="20" textLength="122" clip-path="url(#terminal-line-0)">TrackerApp</text><text class="terminal-r1" x="671" y="20" textLength="12.2" clip-path="url(#terminal-line-0)">
</text><text class="terminal-r3" x="0" y="44.4" textLength="36.6" clip-path="url(#terminal-line-1)">&#160;#&#160;</text><text class="terminal-r3" x="36.6" y="44.4" textLength="36.6" clip-path="url(#terminal-line-1)">&#160;T&#160;</text><text class="terminal-r3" x="73.2" y="44.4" textLength="36.6" clip-path="url(#terminal-line-1)">&#160;P&#160;</text><text class="terminal-r3" x="109.8" y="44.4" textLength="146.4" clip-path="url(#terminal-line-1)">&#160;ID&#160;&#160;&#160;&#160;&#160;&#160;&#160;&#160;&#160;</text><text class="terminal-r3" x="256.2" y="44.4" textLength="158.6" clip-path="url(#terminal-line-1)">&#160;Status&#160;&#160;&#160;&#160;&#160;&#160;</text><text class="terminal-r3" x="414.8" y="44.4" textLength="256.2" clip-path="url(#terminal-line-1)">&#160;Title&#160;&#160;&#160;&#160;&#160;&#160;&#160;&#160;&#160;&#160;&#160;&#160;&#160;&#160;&#160;</text><text class="terminal-r1" x="671" y="44.4" textLength="12.2" clip-path="url(#terminal-line-1)">
</text><text class="terminal-r4" x="0" y="68.8" textLength="36.6" clip-path="url(#terminal-line-2)">&#160;1&#160;</text><text class="terminal-r4" x="36.6" y="68.8" textLength="36.6" clip-path="url(#terminal-line-2)">&#160;W&#160;</text><text class="terminal-r4" x="73.2" y="68.8" textLength="36.6" clip-path="url(#terminal-line-2)">&#160;0&#160;</text><text class="terminal-r4" x="109.8" y="68.8" textLength="146.4" clip-path="url(#terminal-line-2)">&#160;INV-nulim…&#160;</text><text class="terminal-r4" x="256.2" y="68.8" textLength="158.6" clip-path="url(#terminal-line-2)">&#160;done&#160;&#160;&#160;&#160;&#160;&#160;&#160;&#160;</text><text class="terminal-r4" x="414.8" y="68.8" textLength="256.2" clip-path="url(#terminal-line-2)">&#160;Routes&#160;must&#160;have&#160;met</text><text class="terminal-r1" x="671" y="68.8" textLength="12.2" clip-path="url(#terminal-line-2)">
</text><text class="terminal-r2" x="0" y="93.2" textLength="36.6" clip-path="url(#terminal-line-3)">&#160;2&#160;</text><text class="terminal-r2" x="36.6" y="93.2" textLength="36.6" clip-path="url(#terminal-line-3)">&#160;W&#160;</text><text class="terminal-r2" x="73.2" y="93.2" textLength="36.6" clip-path="url(#terminal-line-3)">&#160;1&#160;</text><text class="terminal-r2" x="109.8" y="93.2" textLength="146.4" clip-path="url(#terminal-line-3)">&#160;INV-hifuf…&#160;</text><text class="terminal-r2" x="256.2" y="93.2" textLength="158.6" clip-path="url(#terminal-line-3)">&#160;todo_hard&#160;&#160;&#160;</text><text class="terminal-r2" x="414.8" y="93.2" textLength="256.2" clip-path="url(#terminal-line-3)">&#160;Symbol&#160;IDs&#160;must&#160;be&#160;s</text><text class="terminal-r1" x="671" y="93.2" textLength="12.2" clip-path="url(#terminal-line-3)">
</text><text class="terminal-r2" x="0" y="117.6" textLength="36.6" clip-path="url(#terminal-line-4)">&#160;3&#160;</text><text class="terminal-r2" x="36.6" y="117.6" textLength="36.6" clip-path="url(#terminal-line-4)">&#160;W&#160;</text><text class="terminal-r2" x="73.2" y="117.6" textLength="36.6" clip-path="url(#terminal-line-4)">&#160;2&#160;</text><text class="terminal-r2" x="109.8" y="117.6" textLength="146.4" clip-path="url(#terminal-line-4)">&#160;WI-lonav…&#160;&#160;</text><text class="terminal-r2" x="256.2" y="117.6" textLength="158.6" clip-path="url(#terminal-line-4)">&#160;in_progress&#160;</text><text class="terminal-r2" x="414.8" y="117.6" textLength="256.2" clip-path="url(#terminal-line-4)">&#160;Add&#160;caching&#160;layer&#160;&#160;&#160;</text><text class="terminal-r1" x="671" y="117.6" textLength="12.2" clip-path="url(#terminal-line-4)">
</text><text class="terminal-r1" x="671" y="142" textLength="12.2" clip-path="url(#terminal-line-5)">
</text><text class="terminal-r1" x="671" y="166.4" textLength="12.2" clip-path="url(#terminal-line-6)">
</text><text class="terminal-r1" x="671" y="190.8" textLength="12.2" clip-path="url(#terminal-line-7)">
</text><text class="terminal-r1" x="671" y="215.2" textLength="12.2" clip-path="url(#terminal-line-8)">
</text><text class="terminal-r1" x="671" y="239.6" textLength="12.2" clip-path="url(#terminal-line-9)">
</text><text class="terminal-r1" x="671" y="264" textLength="12.2" clip-path="url(#terminal-line-10)">
</text><text class="terminal-r1" x="671" y="288.4" textLength="12.2" clip-path="url(#terminal-line-11)">
</text><text class="terminal-r1" x="671" y="312.8" textLength="12.2" clip-path="url(#terminal-line-12)">
</text><text class="terminal-r1" x="671" y="337.2" textLength="12.2" clip-path="url(#terminal-line-13)">
</text><text class="terminal-r1" x="671" y="361.6" textLength="12.2" clip-path="url(#terminal-line-14)">
</text><text class="terminal-r1" x="671" y="386" textLength="12.2" clip-path="url(#terminal-line-15)">
</text><text class="terminal-r6" x="597.8" y="410.4" textLength="12.2" clip-path="url(#terminal-line-16)">▋</text><text class="terminal-r1" x="671" y="410.4" textLength="12.2" clip-path="url(#terminal-line-16)">
</text><text class="terminal-r7" x="0" y="434.8" textLength="36.6" clip-path="url(#terminal-line-17)">&#160;q&#160;</text><text class="terminal-r2" x="36.6" y="434.8" textLength="61" clip-path="url(#terminal-line-17)">Quit&#160;</text><text class="terminal-r7" x="97.6" y="434.8" textLength="61" clip-path="url(#terminal-line-17)">&#160;esc&#160;</text><text class="terminal-r2" x="158.6" y="434.8" textLength="61" clip-path="url(#terminal-line-17)">Back&#160;</text><text class="terminal-r7" x="219.6" y="434.8" textLength="36.6" clip-path="url(#terminal-line-17)">&#160;t&#160;</text><text class="terminal-r2" x="256.2" y="434.8" textLength="61" clip-path="url(#terminal-line-17)">Tree&#160;</text><text class="terminal-r7" x="317.2" y="434.8" textLength="36.6" clip-path="url(#terminal-line-17)">&#160;f&#160;</text><text class="terminal-r2" x="353.8" y="434.8" textLength="85.4" clip-path="url(#terminal-line-17)">Filter&#160;</text><text class="terminal-r7" x="439.2" y="434.8" textLength="36.6" clip-path="url(#terminal-line-17)">&#160;d&#160;</text><text class="terminal-r2" x="475.8" y="434.8" textLength="48.8" clip-path="url(#terminal-line-17)">Disc</text><text class="terminal-r8" x="524.6" y="434.8" textLength="12.2" clip-path="url(#terminal-line-17)">▏</text><text class="terminal-r7" x="536.8" y="434.8" textLength="24.4" clip-path="url(#terminal-line-17)">^p</text><text class="terminal-r2" x="561.2" y="434.8" textLength="97.6" clip-path="url(#terminal-line-17)">&#160;palette</text>
    </g>
    </g>
</svg>
